<svg width="30" height="31" viewBox="0 0 30 31" fill="none" xmlns="http://www.w3.org/2000/svg">
<g id="login_svgrepo.com">
<path id="Vector" d="M11.4553 25.442H17.1684C18.2522 25.442 19.1606 25.0614 19.8637 24.3282C20.5669 23.6251 21.0066 22.6876 21.0066 21.6329V10.1776C21.0066 9.12293 20.5669 8.18543 19.8637 7.48231C19.1606 6.77918 18.2231 6.36856 17.1684 6.36856H11.4553V8.77137H17.1684C17.9887 8.77137 18.6037 9.38637 18.6037 10.1776V21.6329C18.6037 22.4242 17.9887 23.0682 17.1684 23.0682H11.4553V25.442ZM0 13.6361V18.2064C0 18.7342 0.439688 19.1729 0.966562 19.1729H6.29906V22.7767C6.29906 23.0992 6.44531 23.3626 6.73875 23.5089C6.85594 23.5379 7.00219 23.5379 7.06125 23.5379C7.26656 23.5379 7.44187 23.4789 7.58906 23.3326L14.4741 16.4476C14.7375 16.1842 14.7084 15.6564 14.4741 15.3639L7.58906 8.50793C7.35469 8.27356 7.06125 8.24449 6.73969 8.33168C6.44625 8.47793 6.3 8.71231 6.3 9.03481V12.6676H0.9675C0.439687 12.6676 0.0009375 13.1073 0.0009375 13.6342L0 13.6361Z" fill="white"/>
</g>
</svg>
