<svg xmlns="http://www.w3.org/2000/svg" width="26" height="26" viewBox="0 0 26 26" fill="none">
  <g clip-path="url(#clip0_53_75)">
    <path d="M11.2047 11.855H22.6951C23.0317 11.855 23.3682 11.6146 23.4163 11.2781L25.5317 3.87425C25.6759 3.3454 25.2913 2.91271 24.8105 2.91271H7.07012L6.78165 1.80694C6.63742 1.2781 6.15665 0.941559 5.67588 0.941559H3.75281C3.12781 0.941559 2.55088 1.42233 2.50281 2.04733C2.45473 2.7204 3.03165 3.29733 3.65665 3.29733H4.76242L8.41627 15.6531C8.5605 16.1819 8.99319 16.5185 9.52204 16.5185H23.0797C23.7047 16.5185 24.2817 16.0377 24.3297 15.4127C24.3778 14.7396 23.8009 14.1627 23.1759 14.1627H11.2528C10.724 14.1627 10.2913 13.8262 10.147 13.3454V13.2973C9.90665 12.5762 10.4836 11.855 11.2047 11.855Z" fill="white"/>
    <path d="M11.4451 22.7204C12.5072 22.7204 13.3682 21.8594 13.3682 20.7973C13.3682 19.7352 12.5072 18.8743 11.4451 18.8743C10.383 18.8743 9.52203 19.7352 9.52203 20.7973C9.52203 21.8594 10.383 22.7204 11.4451 22.7204Z" fill="white"/>
    <path d="M20.8201 22.7204C21.8822 22.7204 22.7432 21.8594 22.7432 20.7973C22.7432 19.7352 21.8822 18.8743 20.8201 18.8743C19.758 18.8743 18.897 19.7352 18.897 20.7973C18.897 21.8594 19.758 22.7204 20.8201 22.7204Z" fill="white"/>
  </g>
  <defs>
    <clipPath id="clip0_53_75">
      <rect width="25" height="25" fill="white" transform="translate(0.5 0.941559)"/>
    </clipPath>
  </defs>
</svg>