<svg width="207" height="14" viewBox="0 0 207 14" fill="none" xmlns="http://www.w3.org/2000/svg">
<g id="Frame" clip-path="url(#clip0_59_86)">
<path id="Vector" d="M193.82 0.445237C194.054 0.210898 194.372 0.0792542 194.704 0.0792542C195.035 0.0792542 195.353 0.210898 195.588 0.445237L200.008 4.86524L204.428 0.445237C204.663 0.21754 204.979 0.0915466 205.307 0.0943946C205.635 0.0972426 205.948 0.228704 206.18 0.460464C206.412 0.692224 206.543 1.00574 206.546 1.33349C206.549 1.66123 206.423 1.97698 206.195 2.21274L201.775 6.63274L206.195 11.0527C206.423 11.2885 206.549 11.6042 206.546 11.932C206.543 12.2597 206.412 12.5732 206.18 12.805C205.948 13.0368 205.635 13.1682 205.307 13.1711C204.979 13.1739 204.663 13.0479 204.428 12.8202L200.008 8.40024L195.588 12.8202C195.352 13.0479 195.036 13.1739 194.708 13.1711C194.381 13.1682 194.067 13.0368 193.835 12.805C193.603 12.5732 193.472 12.2597 193.469 11.932C193.466 11.6042 193.592 11.2885 193.82 11.0527L198.24 6.63274L193.82 2.21274C193.586 1.97833 193.454 1.66044 193.454 1.32899C193.454 0.997532 193.586 0.679647 193.82 0.445237Z" fill="white"/>
</g>
<defs>
<clipPath id="clip0_59_86">
<rect width="206.092" height="13.0919" fill="white" transform="translate(0.454041 0.0792542)"/>
</clipPath>
</defs>
</svg>
