<svg width="21" height="21" viewBox="0 0 21 21" fill="none" xmlns="http://www.w3.org/2000/svg">
<g id="menu-vertical-menu-dots-more_svgrepo.com" clip-path="url(#clip0_51_32)">
<g id="vertical-menu">
<path id="Vector" d="M10.9457 5.82797C11.6361 5.82797 12.1957 5.26833 12.1957 4.57797C12.1957 3.88762 11.6361 3.32797 10.9457 3.32797C10.2554 3.32797 9.69574 3.88762 9.69574 4.57797C9.69574 5.26833 10.2554 5.82797 10.9457 5.82797Z" fill="white"/>
<path id="Vector_2" d="M10.9457 18.328C11.6361 18.328 12.1957 17.7683 12.1957 17.078C12.1957 16.3876 11.6361 15.828 10.9457 15.828C10.2554 15.828 9.69574 16.3876 9.69574 17.078C9.69574 17.7683 10.2554 18.328 10.9457 18.328Z" fill="white"/>
<path id="Vector_3" d="M10.9457 12.078C11.6361 12.078 12.1957 11.5183 12.1957 10.828C12.1957 10.1376 11.6361 9.57797 10.9457 9.57797C10.2554 9.57797 9.69574 10.1376 9.69574 10.828C9.69574 11.5183 10.2554 12.078 10.9457 12.078Z" fill="white"/>
</g>
</g>
<defs>
<clipPath id="clip0_51_32">
<rect width="20" height="20" fill="white" transform="translate(0.937622 0.819214)"/>
</clipPath>
</defs>
</svg>
