<svg width="36" height="36" viewBox="0 0 36 36" fill="none" xmlns="http://www.w3.org/2000/svg">
<g id="login_svgrepo.com" clip-path="url(#clip0_53_59)">
<path id="Vector" d="M22.1431 6.77488H15.4778C14.2134 6.77488 13.1536 7.21894 12.3333 8.07425C11.5129 8.89456 11 9.98831 11 11.2188V24.5833C11 25.8138 11.5129 26.9075 12.3333 27.7278C13.1536 28.5482 14.2473 29.0272 15.4778 29.0272H22.1431V26.2239H15.4778C14.5208 26.2239 13.8033 25.5064 13.8033 24.5833V11.2188C13.8033 10.2957 14.5208 9.54425 15.4778 9.54425H22.1431V6.77488ZM35.5076 20.5485V15.2164C35.5076 14.6007 34.9947 14.0888 34.38 14.0888H28.1587V9.88441C28.1587 9.50816 27.9881 9.20082 27.6458 9.03019C27.509 8.99628 27.3384 8.99628 27.2695 8.99628C27.03 8.99628 26.8254 9.06519 26.6537 9.23581L18.6212 17.2683C18.3139 17.5757 18.3478 18.1914 18.6212 18.5327L26.6537 26.5313C26.9272 26.8047 27.2695 26.8386 27.6447 26.7369C27.987 26.5663 28.1576 26.2928 28.1576 25.9166V21.6783H34.3789C34.9947 21.6783 35.5065 21.1653 35.5065 20.5507L35.5076 20.5485Z" fill="white"/>
</g>
<defs>
<clipPath id="clip0_53_59">
<rect width="35" height="35" fill="white" transform="matrix(-1 0 0 -1 35.5 35.9415)"/>
</clipPath>
</defs>
</svg>
