<svg width="21" height="20" viewBox="0 0 21 20" fill="none" xmlns="http://www.w3.org/2000/svg">
<g id="Group 9">
<path id="Vector" d="M14.8389 0.920746H6.16068C5.00797 0.920746 4.43162 0.920746 3.96846 1.19455C3.50529 1.46836 3.24753 1.96145 2.73204 2.94762L1.3869 6.2001C1.07612 6.95154 0.804216 7.83723 1.32735 8.47179C1.67831 8.89749 2.22234 9.17075 2.83312 9.17075C3.89167 9.17075 4.74979 8.34996 4.74979 7.33741C4.74979 8.34996 5.60792 9.17075 6.66646 9.17075C7.725 9.17075 8.58312 8.34996 8.58312 7.33741C8.58312 8.34996 9.44123 9.17075 10.4998 9.17075C11.5584 9.17075 12.4165 8.34996 12.4165 7.33741C12.4165 8.34996 13.2746 9.17075 14.3331 9.17075C15.3917 9.17075 16.2498 8.34996 16.2498 7.33741C16.2498 8.34996 17.1079 9.17075 18.1665 9.17075C18.7772 9.17075 19.3213 8.89749 19.6723 8.47179C20.1955 7.83723 19.9236 6.95154 19.6128 6.2001L18.2677 2.94762C17.7521 1.96145 17.4944 1.46836 17.0312 1.19455C16.5681 0.920746 15.9917 0.920746 14.8389 0.920746Z" fill="#fada88"/>
<path id="Vector_2" fill-rule="evenodd" clip-rule="evenodd" d="M18.1667 18.5666H20.0834C20.4803 18.5666 20.8021 18.8744 20.8021 19.2541C20.8021 19.6337 20.4803 19.9416 20.0834 19.9416H0.916687C0.519736 19.9416 0.197937 19.6337 0.197937 19.2541C0.197937 18.8744 0.519736 18.5666 0.916687 18.5666H2.83335V10.5457C3.546 10.5457 4.20673 10.3332 4.75002 9.9707C5.29332 10.3332 5.95405 10.5457 6.66669 10.5457C7.37933 10.5457 8.04007 10.3332 8.58335 9.9707C9.12663 10.3332 9.7874 10.5457 10.5 10.5457C11.2126 10.5457 11.8734 10.3332 12.4167 9.9707C12.96 10.3332 13.6207 10.5457 14.3334 10.5457C15.046 10.5457 15.7067 10.3332 16.25 9.9707C16.7933 10.3332 17.4541 10.5457 18.1667 10.5457V18.5666ZM8.10419 18.5666H12.8959V16.0457C12.8959 15.189 12.8959 14.7607 12.7032 14.4416C12.5771 14.2326 12.3956 14.0589 12.1771 13.9382C11.8435 13.7541 11.3957 13.7541 10.5 13.7541C9.60436 13.7541 9.15653 13.7541 8.82294 13.9382C8.60444 14.0589 8.42294 14.2326 8.29677 14.4416C8.10419 14.7607 8.10419 15.189 8.10419 16.0457V18.5666Z" fill="#fada88"/>
</g>
</svg>
